<?xml version="1.0" standalone="no"?>
<!DOCTYPE svg PUBLIC "-//W3C//DTD SVG 20010904//EN"
 "http://www.w3.org/TR/2001/REC-SVG-20010904/DTD/svg10.dtd">
<svg version="1.0" xmlns="http://www.w3.org/2000/svg"
 width="256.000000pt" height="65.000000pt" viewBox="0 0 256.000000 65.000000"
 preserveAspectRatio="xMidYMid meet">
<metadata>
Created by potrace 1.15, written by Peter Selinger 2001-2017
</metadata>
<g transform="translate(0.000000,65.000000) scale(0.100000,-0.100000)"
fill="#000000" stroke="none">
<path d="M150 627 c0 -2 -22 -115 -50 -252 -28 -137 -50 -257 -50 -267 0 -17
7 -19 57 -16 l57 3 32 158 c27 138 44 198 44 158 0 -16 38 -268 45 -299 5 -21
10 -23 57 -20 l51 3 90 167 c50 92 92 166 93 165 1 -1 -11 -65 -26 -142 -16
-77 -29 -152 -30 -167 0 -27 2 -28 55 -28 48 0 55 3 60 23 19 79 95 475 95
494 0 22 -3 23 -84 23 l-85 0 -88 -170 c-48 -93 -90 -170 -94 -170 -3 0 -16
77 -28 170 l-24 170 -88 0 c-49 0 -89 -1 -89 -3z"/>
<path d="M919 489 c-60 -9 -103 -32 -128 -68 -35 -48 -29 -61 30 -61 43 0 56
5 75 26 20 21 32 25 67 22 34 -2 43 -7 45 -25 5 -31 -30 -49 -116 -62 -41 -6
-87 -18 -103 -27 -43 -21 -69 -70 -69 -126 0 -38 5 -50 26 -67 33 -26 126 -29
182 -6 24 10 38 12 40 5 2 -5 27 -10 56 -10 l51 0 19 103 c42 231 42 234 16
262 -21 22 -43 30 -120 39 -14 2 -46 0 -71 -5z"/>
<path d="M1737 486 c-64 -17 -116 -61 -151 -127 -39 -70 -43 -171 -10 -216 65
-89 241 -84 319 9 34 40 29 62 -14 66 -23 2 -44 -4 -70 -22 -66 -46 -146 -27
-139 33 l3 26 135 3 c92 2 137 6 142 15 13 21 9 95 -8 137 -28 70 -114 101
-207 76z"/>
<path d="M2245 490 c-16 -4 -45 -14 -62 -24 -29 -14 -33 -14 -33 -1 0 19 -46
30 -78 19 -25 -9 -28 -19 -63 -194 -20 -102 -35 -188 -32 -192 6 -11 101 -10
107 1 3 4 17 61 30 126 14 64 32 128 41 141 27 42 107 45 118 4 3 -11 -6 -75
-19 -142 -13 -68 -24 -127 -24 -131 0 -4 26 -7 57 -5 l57 3 28 135 c31 151 33
179 17 213 -18 40 -83 61 -144 47z"/>
<path d="M1430 398 c-19 -22 -51 -66 -71 -98 l-36 -59 -13 57 c-24 113 -33
133 -55 128 -11 -3 -31 -6 -44 -6 -24 0 -24 -1 -18 -75 4 -41 15 -101 26 -132
13 -39 16 -60 9 -64 -6 -4 -2 -10 10 -14 12 -3 21 -9 21 -13 -1 -4 -1 -16 0
-27 1 -17 3 -18 11 -5 17 27 11 0 -10 -40 -22 -44 -24 -50 -12 -50 5 0 16 15
24 33 l16 32 12 -33 c7 -17 16 -32 21 -32 4 0 2 19 -6 41 -19 52 -19 60 0 53
8 -4 15 -1 15 5 0 6 10 11 23 11 16 0 34 15 58 47 48 65 111 164 113 179 1 7
7 19 14 27 10 12 7 19 -20 39 -18 13 -37 27 -43 30 -5 3 -26 -12 -45 -34z"/>
</g>
</svg>
