<?xml version="1.0" standalone="no"?>
<!DOCTYPE svg PUBLIC "-//W3C//DTD SVG 20010904//EN"
 "http://www.w3.org/TR/2001/REC-SVG-20010904/DTD/svg10.dtd">
<svg version="1.0" xmlns="http://www.w3.org/2000/svg"
 width="365.000000pt" height="150.000000pt" viewBox="0 0 365.000000 150.000000"
 preserveAspectRatio="xMidYMid meet">
<metadata>
Created by potrace 1.15, written by Peter Selinger 2001-2017
</metadata>
<g transform="translate(0.000000,150.000000) scale(0.100000,-0.100000)"
fill="#000000" stroke="none">
<path d="M130 1234 l0 -85 28 3 c21 2 28 9 30 31 3 24 7 28 30 25 21 -2 28 -9
30 -30 3 -22 9 -28 28 -28 24 0 24 2 24 85 0 83 0 85 -24 85 -19 0 -25 -6 -28
-27 -2 -22 -9 -29 -30 -31 -25 -3 -28 0 -28 27 0 28 -3 31 -30 31 l-30 0 0
-86z"/>
<path d="M510 1235 l0 -85 30 0 c29 0 30 2 30 43 l1 42 15 -27 c8 -16 18 -28
23 -28 4 0 14 12 22 28 l14 27 3 -42 c3 -38 6 -43 28 -43 24 0 24 2 24 85 l0
85 -28 0 c-20 0 -32 -8 -46 -31 l-18 -31 -19 31 c-14 24 -26 31 -49 31 l-30 0
0 -85z"/>
<path d="M1820 1270 l0 -50 55 0 c30 0 55 -4 55 -10 0 -5 -25 -10 -55 -10 -52
0 -55 -1 -55 -25 0 -25 1 -25 80 -25 l80 0 0 55 0 55 -61 0 c-37 0 -58 4 -54
10 3 6 31 10 61 10 47 0 54 2 54 20 0 18 -7 20 -80 20 l-80 0 0 -50z"/>
<path d="M2870 1235 l0 -85 80 0 c79 0 80 0 80 25 0 24 -3 25 -55 25 l-55 0 0
40 0 40 55 0 c48 0 55 2 55 20 0 18 -7 20 -80 20 l-80 0 0 -85z"/>
<path d="M3060 1270 l0 -50 55 0 c30 0 55 -4 55 -10 0 -5 -25 -10 -55 -10 -52
0 -55 -1 -55 -25 0 -25 1 -25 80 -25 l80 0 0 55 0 55 -61 0 c-37 0 -58 4 -54
10 3 6 31 10 61 10 47 0 54 2 54 20 0 18 -7 20 -80 20 l-80 0 0 -50z"/>
<path d="M3240 1270 l0 -50 60 0 c77 0 79 -18 3 -22 -50 -3 -58 -6 -58 -23 0
-18 7 -20 80 -20 l80 0 0 50 0 50 -57 3 c-77 4 -75 22 2 22 53 0 60 2 60 20 0
18 -7 20 -85 20 l-85 0 0 -50z"/>
<path d="M50 1063 c0 -15 71 -839 76 -879 l5 -41 185 -52 186 -51 185 51 c102
29 186 57 188 63 2 6 20 200 40 431 19 231 37 435 39 453 l5 32 -455 0 c-250
0 -454 -3 -454 -7z m810 -110 c0 -21 -7 -108 -14 -193 -8 -85 -23 -245 -32
-355 -10 -110 -18 -201 -20 -203 -1 -2 -65 -20 -142 -41 l-141 -38 -3 55 -3
55 -118 32 c-64 18 -119 34 -121 36 -2 2 -7 43 -11 92 l-7 87 60 0 c65 0 72
-6 72 -60 0 -26 5 -30 56 -45 44 -13 65 -14 93 -6 25 7 28 10 9 7 l-28 -3 0
73 0 73 55 0 54 -1 4 -52 3 -51 2 58 2 57 -195 0 c-179 0 -195 1 -195 18 0 21
-18 230 -25 288 l-4 42 292 8 c236 7 265 10 150 12 l-143 3 0 44 0 45 175 0
175 0 0 -37z"/>
<path d="M358 705 l4 -56 71 3 72 3 3 47 3 47 137 4 c104 2 85 3 -78 5 l-215
2 3 -55z"/>
<path d="M2690 1053 c1 -37 78 -905 82 -908 2 -2 86 -26 187 -55 l183 -52 189
53 c104 29 189 57 189 62 0 18 69 821 75 870 l6 47 -456 0 c-427 0 -455 -1
-455 -17z m815 -90 c-3 -16 -19 -192 -36 -393 -18 -201 -33 -366 -34 -368 -2
-2 -66 -20 -143 -41 l-141 -38 -3 55 -3 56 -119 33 c-65 18 -120 34 -121 35
-2 2 -6 42 -10 91 l-7 87 60 0 c64 0 71 -7 72 -67 0 -18 10 -25 52 -38 85 -25
83 -27 80 70 l-3 85 -129 0 c-71 0 -131 3 -133 8 -3 4 -7 32 -8 62 l-4 55 100
52 100 52 -103 1 c-113 0 -108 -3 -115 72 l-4 47 146 3 146 3 3 53 3 52 179 0
180 0 -5 -27z"/>
</g>
</svg>
